<?xml version="1.0" encoding="utf-8"?>
<!-- Generator: Adobe Illustrator 25.0.0, SVG Export Plug-In . SVG Version: 6.00 Build 0)  -->
<svg version="1.1" id="Layer_1" xmlns="http://www.w3.org/2000/svg" xmlns:xlink="http://www.w3.org/1999/xlink" x="0px" y="0px"
	 viewBox="0 0 2500 747" style="enable-background:new 0 0 2500 747;" xml:space="preserve">
<style type="text/css">
	.st0{fill:#14A800;}
</style>
<path class="st0" d="M684.2,471.8c-40.6,0-78.7-17.2-113.3-45.2l8.4-39.5l0.4-1.5c7.5-42.1,31.3-112.7,104.5-112.7
	c54.9,0,99.6,44.7,99.6,99.6C783.5,427.1,738.9,471.8,684.2,471.8L684.2,471.8z M684.2,172c-93.5,0-166,60.8-195.4,160.7
	c-45-67.5-79.1-148.6-99-216.9H289.1v261.9c0,51.6-42.1,93.7-93.7,93.7s-93.7-42.1-93.7-93.7V115.8H1v261.9
	C0.7,484.9,88,573,195.2,573c107.2,0,194.5-88,194.5-195.3v-43.9c19.6,40.8,43.6,82,72.6,118.6l-61.7,289.9h103L548.4,532
	c39.2,25.1,84.2,40.8,135.8,40.8c110.3,0,200.2-90.4,200.2-200.8C884.4,261.9,794.5,172,684.2,172L684.2,172z"/>
<path class="st0" d="M1191.6,183.4l65,261.9l71.6-261.9h85.3l-110,378.4h-85.3l-67.5-263.5l-67.3,263.3H998L888,183.2h85.3
	l71.6,261.9l65-261.9h81.8L1191.6,183.4L1191.6,183.4z M1617.5,172c-110.7,0-200.4,89.8-200.4,200.4c0,110.7,89.9,200.4,200.4,200.4
	c110.7,0,200.6-89.7,200.6-200.4C1818,261.7,1728.2,172,1617.5,172L1617.5,172z M1617.5,490.4c-65.1,0-117.9-52.7-117.9-117.9
	c0-65.2,52.9-117.9,117.9-117.9c65.2,0,117.9,52.7,117.9,117.9C1735.3,437.6,1682.6,490.4,1617.5,490.4z M2061.6,268.1
	c-57.3,0-103.6,46.5-103.6,103.6v190h-85.8V183.4h85.8v58.2c0,0,36.6-58.4,111.8-58.4h26.4v84.9L2061.6,268.1L2061.6,268.1z
	 M2349.6,357.8c60.9-34.4,102.3-99.7,102.3-174.6h-85.8c0,63.1-51.2,114.4-114.4,114.4h-11.5V0.7h-85.8v560.9h85.8V383.4h10.3
	c8.4,0,19.4,5.5,24.3,12.3l121.9,166h102.8L2349.6,357.8L2349.6,357.8z"/>
</svg>
